<svg xmlns="http://www.w3.org/2000/svg" width="200" height="174">
  <path fill="#F8E71C" fill-rule="evenodd" stroke="#F8E71C" d="M17.463 36.795c5.1-7.444 2.354-7.914 10.895-17.196 5.694-6.188 12.77-11.565 21.228-16.13 9.161-3.292 17.066-3.292 23.713 0 9.971 4.939 12.58 11.525 14.972 19.16 2.392 7.636-2.068 16.787 0 21.516 2.07 4.729 11.019 8.965 26.498 22.15 15.479 13.185 15.479 19.697 29.906 27.291 14.428 7.595 47.633 12.55 50.964 13.683 3.33 1.133 5.515 7.802 2.184 10.383-3.33 2.581-7.925 5.763-22.239 5.763s-27.36-5.77-40.746-4.199c-13.386 1.572-28.52 9.542-33.99 16.14-5.47 6.598-5.797 29.212-7.317 32.21-1.52 3-9.016 3.982-9.016-5.825 0-9.808 2.09-18.165 0-22.603-2.09-4.437-8.423-7.394-13.024 0-4.601 7.395-3.622 25.015-5.508 28.429-1.886 3.414-10.564 10.929-10.564 0 0-10.93 4.823-16.769 4.823-28.429s-26.748-13.813-35.334-19.922c-13.526-9.624-17.938-22.522-19.46-25.63C1.72 85.965-1.218 67.297 3.27 57.354c4.489-9.943 9.092-13.116 14.193-20.56z"/>
</svg>
