<svg xmlns="http://www.w3.org/2000/svg" width="248" height="151">
  <path fill="#F8E71C" fill-rule="evenodd" stroke="#F8E71C" d="M228.012 17.336L211.072 3.08c-6.567-2.775-14.048-2.775-22.443 0-12.592 4.161-4.415 2.652-22.704 14.255-18.29 11.603-15.567 8.971-35.51 22.677-13.296 9.138-25.74 18.727-37.332 28.766-3.474 5.17-14.373 10.74-32.7 16.711C42.059 91.462 22.267 95.892 1.01 98.78c-.304 5.875 7.478 8.813 23.346 8.813s32.393-2.938 49.574-8.812l-5.273 13.29h36.628c12.248 0 18.372 2.556 18.372 7.668v22.813l10.841 3.313v-20.573c0-5.553 11.103-5.553 11.103 0v25.172h9.022v-25.172c30.423-6.011 48.2-17.252 53.33-33.723 7.695-24.707 1.21-44.29 3.12-51.556 1.274-4.844 5.856-9.038 13.746-12.582h21.539c1.42-1.296 1.42-2.926 0-4.889-2.13-2.945-2.755-3.916-7.301-5.206-3.03-.86-6.712-.86-11.044 0z"/>
</svg>
