<svg xmlns="http://www.w3.org/2000/svg" width="110" height="227">
  <path fill="#F8E71C" fill-rule="evenodd" stroke="#F8E71C" d="M2.136 29.127C7.84 18.734 12.58 11.005 25.254 4.45c12.674-6.554 20.415-2.143 29.575 0 6.107 1.43 11.8 6.19 17.078 14.284l5.253 10.393c12.371 13.046 20.32 23.078 23.847 30.097 5.291 10.528 8.087 14.383 8.087 29.537s-1.965 20.673-8.087 30.375c-4.08 6.469-12.03 11.36-23.847 14.672 6.98 35.159 10.469 56.63 10.469 64.415 0 7.785-3.49 14.975-10.469 21.57-4.332 5.772-10.363 7.476-18.093 5.112-11.594-3.546-13.409-9.465-17.207-18.161-2.533-5.797-2.533-28.76 0-68.887-15.658-15.255-24.964-27.534-27.92-36.839-4.433-13.957 5.843-46.421 2.904-57.552-2.94-11.13-20.41-3.947-14.708-14.34z"/>
</svg>
