<svg xmlns="http://www.w3.org/2000/svg" width="201" height="175">
  <path fill="#F8E71C" fill-rule="evenodd" stroke="#F8E71C" d="M109.014 29.492c3.251-10.936 13.37-23.546 32.422-27.47 19.053-3.924 26.305 3.846 35.91 16.534 9.605 12.688 17.84 22.825 20.857 44.018 3.017 21.194 3.058 26.008-8.172 43.132-7.486 11.416-18.91 20.703-34.273 27.86-10.542 8.13-21.868 12.195-33.98 12.195-12.11 0-24.277-4.065-36.5-12.194-35.326 23.29-55.366 36.125-60.12 38.501-4.753 2.377-10.383 2.377-16.889 0-9.692-.818-9.692-5.933 0-15.346 9.693-9.412 22.909-17.131 39.647-23.155-4.386-4.888-5.45-9.864-3.19-14.929 2.26-5.064 15.777-16.952 40.551-35.664 22.86-22.821 35.027-35.071 36.502-36.749 1.474-1.677 2.477-3.625 3.01-5.842-12.684.03-17.942-3.6-15.775-10.891z"/>
</svg>
