<svg xmlns="http://www.w3.org/2000/svg" xmlns:xlink="http://www.w3.org/1999/xlink" width="51" height="33">
  <defs>
    <path id="a" d="M27.424 39.704c12.964-.018 23.42-10.743 23.514-23.956.12-16.798 1.59-6.724-10.927-2.143-8.722 3.193-12.946.525-25.167-1.874-4.404-.864-10.982 3.895-10.86 9.539.283 13.185 10.477 18.45 23.44 18.434z"/>
    <path id="c" d="M8.048.245l6.7 7.096a.872.872 0 0 1 0 1.183l-6.7 7.097a.759.759 0 0 1-1.117 0l-6.7-7.097a.872.872 0 0 1 0-1.183l6.7-7.096a.759.759 0 0 1 1.117 0z"/>
    <linearGradient id="d" x1="0%" x2="102%" y1="0%" y2="101%">
      <stop offset="0%" stop-color="#3023AE"/>
      <stop offset="100%" stop-color="#C86DD7"/>
    </linearGradient>
  </defs>
  <g fill="none" fill-rule="evenodd">
    <g transform="translate(-4 -7)">
      <mask id="b" fill="#fff">
        <use xlink:href="#a"/>
      </mask>
      <use fill="#FFEE58" transform="rotate(17 27.516 23.054)" xlink:href="#a"/>
      <path fill="#8B572A" d="M11.7 47.462c5.646 0 11.971-2.399 11.971-7.865s-9.127-15.664-16.24-13.374C.318 28.513 1.474 32.1 1.474 37.565s4.578 9.897 10.225 9.897z" mask="url(#b)" opacity=".419"/>
    </g>
    <g transform="translate(16 11)">
      <mask id="e" fill="#fff">
        <use xlink:href="#c"/>
      </mask>
      <path fill="url(#d)" fill-rule="nonzero" d="M10.992 5.691a.677.677 0 0 0-.202-.162c-.007 0-.014-.014-.02-.021l.316-2.053c0-.014.007-.021.014-.021h.006s.007 0 .014.007l1.449 1.517c.006.007.006.014.006.02 0 .008-.006.015-.013.022l-1.55.698h-.007c-.006 0-.006 0-.013-.007zM7.71 4.555a.946.946 0 0 0-.135-.402c-.007-.007-.007-.02 0-.035L9.2 1.451c0-.007.006-.014.013-.014.007 0 .007 0 .014.007l1.441 1.517c.007.007.007.014.007.021l-.377 2.477c0 .014-.007.02-.014.02a.7.7 0 0 0-.235.128c0 .007-.007.007-.02.007L7.723 4.577c-.007-.007-.013-.014-.013-.022zm5.262.819l2.473 2.596c.013.007.013.028 0 .028l-.014.014c0 .008-.007.008-.02.008l-4.137-1.856c-.007 0-.014-.014-.014-.021 0-.007.007-.014.014-.021l1.684-.755s.007 0 .014.007zm-1.907 1.242l3.969 1.777c.006.008.006.015.006.022 0 .007 0 .014-.006.02l-2.197 2.308c0 .007-.007.007-.02.007l-2.399-.53c-.013 0-.02-.006-.02-.02a.718.718 0 0 0-.256-.494c-.007-.007-.007-.014-.007-.021l.425-2.759c0-.014.013-.021.02-.021a.67.67 0 0 0 .458-.282c.007-.007.014-.007.027-.007zM7.609 5.063l2.17.974c.007.007.014.014.014.028a.65.65 0 0 0-.014.12v.064c0 .007-.007.014-.013.02 0 0-4.764 2.153-4.77 2.153-.008 0-.014 0-.021-.007-.007-.007-.007-.022 0-.029L6.761 5.46c.006-.007.013-.015.026-.015.048.008.088.015.128.015.27 0 .52-.142.668-.381.006-.007.013-.015.026-.015zm2.675 5.637l2.11.46c.006 0 .013.006.013.027 0 .007 0 .014-.007.021l-2.924 3.07c0 .006-.007.006-.014.006H9.45c-.007-.007-.014-.014-.014-.028l.506-3.287c0-.007.007-.022.013-.022a.731.731 0 0 0 .303-.24c.007 0 .014-.007.027-.007zm-1.24-.26c.055.218.203.409.405.493.013.007.013.021 0 .021 0 0-.613 3.958-.613 3.965l-.216.226c0 .007-.007.007-.013.007-.007 0-.007 0-.014-.007L5.036 9.7c-.007-.007-.007-.021 0-.029.02-.028.033-.056.054-.091.006-.007.013-.014.026-.014l3.908.853c.014.007.02.014.02.021zM5.219 9.084c-.014 0-.02-.007-.02-.021 0-.057-.014-.106-.02-.163 0-.014 0-.02.013-.028 0 0 4.79-2.166 4.797-2.166 0 0 .007 0 .013.007.034.036.061.057.088.078.014 0 .014.014.014.021L9.685 9.53c0 .014-.007.021-.02.021a.675.675 0 0 0-.546.367c-.007.007-.014.014-.027.014l-3.874-.846zm-1.705.571c.02.036.04.064.06.092.007.007.007.014.007.014l-.923 1.517c-.007.007-.013.014-.02.014 0 0-.007 0-.014-.007l-.815-.854c-.007-.007-.007-.014-.007-.02 0-.008.007-.015.014-.015l1.67-.755h.008c.006 0 .013.007.02.014zm1.145.353c.007 0 .014.007.02.014l3.572 5.49c.006.006.006.02 0 .027l-.782.826c0 .007-.007.007-.027 0l-4.46-4.678c-.007-.007-.007-.021.006-.035l.97-1.595c.007-.007.014-.014.027-.014.102.036.196.05.297.05.128 0 .25-.028.377-.085zm-.586-1.813c-.007 0-.013-.007-.02-.014L2.138 5.226c-.006-.007-.006-.021 0-.028L3.856 3.39c0-.007.007-.007.02-.007 0 .007 2.029.91 2.258 1.016.007.007.013.014.013.029a.856.856 0 0 0 .202.769c.007.007.007.02 0 .028L4.545 8.189c-.007.007-.014.014-.027.014a.86.86 0 0 0-.23-.035c-.067 0-.14.014-.215.028zm2.311-4.219c-.087-.042-2.136-.96-2.136-.96-.006-.007-.013-.007-.006-.02 0-.008 0-.015.006-.022L7.455-.397c0-.007.006-.007.013-.007.007 0 .007 0 .013.007l1.382 1.446c.006.007.006.021 0 .028l-1.665 2.73c-.006.008-.013.015-.026.015a.792.792 0 0 0-.768.148c-.007.007-.007.007-.02.007zm-2.91 4.706c-.007.007-.014.014-.02.014L-.362 7.85c-.014 0-.02-.007-.02-.014s0-.014.006-.021l2.13-2.23c0-.007.006-.007.013-.007.013.008.013.008.02.015 0 .007 1.826 2.8 1.846 2.829.007.007.007.02 0 .028-.06.07-.121.148-.162.233zm-.216.48c.013 0 .02.007.02.02 0 .008-.007.015-.02.029l-1.84.825s-.006 0-.013-.007L-.072 8.478c-.006-.007-.013-.021-.006-.028.006-.007.013-.014.027-.014l3.308.726z" mask="url(#e)"/>
    </g>
  </g>
</svg>