<svg xmlns="http://www.w3.org/2000/svg" xmlns:xlink="http://www.w3.org/1999/xlink" width="123" height="334">
  <defs>
    <path id="a" d="M37.56 1.151l31.269 33.35c1.44 1.534 1.44 4.023 0 5.557l-31.27 33.35c-1.438 1.534-3.771 1.534-5.21 0l-31.27-33.35c-1.439-1.534-1.439-4.023 0-5.558L32.35 1.151c1.439-1.535 3.772-1.535 5.21 0z"/>
    <linearGradient id="b" x1="0%" x2="102%" y1="0%" y2="101%">
      <stop offset="0%" stop-color="#3023AE"/>
      <stop offset="100%" stop-color="#C86DD7"/>
    </linearGradient>
  </defs>
  <g fill="none" fill-rule="evenodd">
    <path fill="#F8E71C" stroke="#F8E71C" d="M33.998 59.789c3.483-8.577-1-19.536 0-28.6 1-9.062.84-7.228 4.822-15.111 3.981-7.884 7.21-9.492 13.744-12.14 6.534-2.648 20.184-5.013 27.52 0C87.42 8.951 91.462 8.38 95.136 20.375c3.674 11.995-3.317 25.14 0 41.074 3.317 15.933 18.373 21.692 23.6 44.093 5.228 22.4 3.278 48.613-1.95 63.968-5.227 15.356-35.989 48.268-42.442 64.185-6.452 15.918 3.447 90.003-9.913 95.271-13.36 5.268-22.067 3.516-25.611 2.399-3.545-1.117-7.858-6.02-7.858-12.577 0-6.558 12.68-70.813 7.858-89.06-4.822-18.248-28.535-47.12-33.84-65.849-5.306-18.73-5.306-40.681 0-53.608 5.305-12.927 25.534-41.906 29.018-50.482z"/>
    <g transform="translate(28 81)">
      <mask id="c" fill="#fff">
        <use xlink:href="#a"/>
      </mask>
      <path fill="url(#b)" fill-rule="nonzero" d="M51.301 26.746a3.164 3.164 0 0 0-.943-.763c-.032 0-.063-.066-.095-.1l1.478-9.647c0-.067.032-.1.063-.1h.032s.031 0 .063.033l6.76 7.129c.032.033.032.066.032.1 0 .032-.031.065-.063.099l-7.233 3.282h-.031c-.031 0-.031 0-.063-.033zm-15.314-5.338a4.465 4.465 0 0 0-.63-1.89c-.03-.033-.03-.1 0-.166l7.58-12.532c0-.033.03-.066.062-.066s.032 0 .063.033l6.73 7.128c.031.033.031.066.031.1l-1.76 11.636c0 .067-.032.1-.064.1a3.264 3.264 0 0 0-1.1.597c0 .033-.032.033-.095.033L36.05 21.507c-.031-.033-.062-.066-.062-.1zm24.56 3.846l11.54 12.2c.063.034.063.133 0 .133l-.062.067c0 .033-.032.033-.095.033l-19.308-8.72c-.032 0-.063-.066-.063-.1 0-.032.031-.066.063-.099l7.862-3.547s.031 0 .063.033zm-8.9 5.835l18.522 8.355c.032.033.032.066.032.1 0 .033 0 .066-.032.099L59.918 50.484c0 .033-.032.033-.095.033l-11.195-2.486c-.063 0-.094-.033-.094-.1-.094-.928-.503-1.757-1.195-2.32-.032-.034-.032-.067-.032-.1l1.982-12.963c0-.066.063-.1.094-.1a3.122 3.122 0 0 0 2.138-1.326c.032-.033.063-.033.126-.033zm-16.132-7.294L45.64 28.37c.031.034.063.067.063.133a3.071 3.071 0 0 0-.063.564v.298c0 .033-.032.066-.063.1 0 0-22.233 10.111-22.264 10.111-.032 0-.063 0-.095-.033-.031-.033-.031-.1 0-.132l8.334-13.76c.031-.032.063-.066.125-.066.22.034.41.067.598.067 1.258 0 2.421-.663 3.113-1.79.032-.034.063-.067.126-.067zm12.484 26.49l9.843 2.155c.032 0 .063.033.063.133 0 .033 0 .066-.031.1L44.226 67.094c0 .033-.032.033-.063.033H44.1c-.032-.033-.063-.067-.063-.133l2.358-15.45c0-.033.032-.1.063-.1.566-.231 1.038-.63 1.415-1.127.032 0 .063-.033.126-.033zm-5.786-1.226c.252 1.027.943 1.923 1.887 2.32.063.034.063.1 0 .1 0 0-2.862 18.6-2.862 18.633l-1.006 1.06c0 .034-.032.034-.063.034s-.031 0-.063-.033L23.502 45.577c-.031-.033-.031-.099 0-.132.094-.133.157-.265.252-.431.031-.033.063-.066.125-.066l18.24 4.011c.063.033.094.067.094.1zm-17.862-6.366c-.063 0-.094-.033-.094-.1 0-.265-.063-.497-.094-.762 0-.066 0-.1.063-.133 0 0 22.358-10.178 22.39-10.178 0 0 .031 0 .063.033.157.166.283.265.408.365.063 0 .063.066.063.1L45.2 44.781c0 .066-.03.1-.094.1-1.069.065-2.012.728-2.547 1.723-.031.033-.063.066-.126.066l-18.082-3.978zm-7.956 2.685c.095.166.189.299.283.431.032.034.032.067.032.067L12.4 53.004c-.031.033-.062.066-.094.066 0 0-.031 0-.063-.033L8.44 49.025c-.031-.033-.031-.066-.031-.099s.031-.066.063-.066l7.798-3.548h.032c.031 0 .063.033.094.066zm5.346 1.658c.031 0 .063.033.094.067l16.667 25.794c.032.033.032.1 0 .132l-3.648 3.88c0 .032-.031.032-.125 0L13.91 54.926c-.032-.033-.032-.1.031-.166l4.529-7.493c.031-.033.062-.066.125-.066.472.166.912.232 1.384.232.598 0 1.164-.133 1.761-.398zm-2.736-8.52c-.031 0-.063-.034-.094-.067L9.98 24.558c-.032-.034-.032-.1 0-.133l8.019-8.488c0-.033.031-.033.094-.033 0 .033 9.466 4.277 10.535 4.774.031.034.063.067.063.133a4.33 4.33 0 0 0-.094.895c0 1.028.377 1.99 1.037 2.719.032.033.032.1 0 .133l-8.427 13.924c-.032.033-.063.067-.126.067a3.988 3.988 0 0 0-1.07-.166c-.314 0-.66.066-1.006.132zm10.787-19.827c-.41-.199-9.97-4.509-9.97-4.509-.03-.033-.062-.033-.03-.1 0-.032 0-.065.03-.099l14.97-15.847c0-.034.031-.034.063-.034.031 0 .031 0 .062.034l6.447 6.796c.031.033.031.1 0 .133l-7.767 12.83c-.032.034-.063.067-.126.067a3.955 3.955 0 0 0-1.227-.199c-.849 0-1.698.332-2.358.895-.032.033-.032.033-.094.033zM16.207 40.803c-.032.033-.063.066-.095.066l-17.799-3.978c-.063 0-.094-.033-.094-.066s0-.067.031-.1l9.938-10.477c0-.033.031-.033.062-.033.063.033.063.033.095.067 0 .033 8.522 13.162 8.616 13.294.032.034.032.1 0 .133-.283.332-.566.696-.754 1.094zM15.2 43.058c.063 0 .094.033.094.099 0 .033-.031.066-.094.133l-8.585 3.879s-.031 0-.063-.033l-6.887-7.294c-.031-.034-.063-.1-.031-.133.031-.033.063-.066.126-.066l15.44 3.415z" mask="url(#c)"/>
    </g>
  </g>
</svg>
