<svg xmlns="http://www.w3.org/2000/svg" xmlns:xlink="http://www.w3.org/1999/xlink" width="445" height="470">
  <defs>
    <path id="a" d="M52.047 1.58l43.33 45.8c1.995 2.108 1.995 5.526 0 7.634l-43.33 45.799c-1.994 2.108-5.227 2.108-7.221 0l-43.33-45.8c-1.995-2.107-1.995-5.525 0-7.633l43.33-45.8c1.994-2.107 5.227-2.107 7.221 0z"/>
    <linearGradient id="b" x1="0%" x2="102%" y1="0%" y2="101%">
      <stop offset="0%" stop-color="#3023AE"/>
      <stop offset="100%" stop-color="#C86DD7"/>
    </linearGradient>
  </defs>
  <g fill="none" fill-rule="evenodd">
    <path fill="#F8E71C" fill-rule="nonzero" d="M48.469.551c-.919 1.103.294 6.1 4.299 18.19 2.535 7.644 9.848 20.873 18.557 33.514.735 1.066 3.528 5.181 6.21 9.113 4.373 6.394 7.386 10.657 10.51 14.773.55.735 1.433 1.947 1.947 2.682.515.735 1.36 1.911 1.948 2.646 2.351 3.087.55 1.69-5.696-4.483-6.504-6.43-8.378-8.342-22.158-23.114-3.528-3.822-6.872-7.24-7.35-7.644-.514-.404-.918-.918-.918-1.212 0-.258-.441-.882-.992-1.36-.588-.478-1.507-1.433-2.095-2.131-.588-.699-3.417-3.785-6.283-6.799-2.867-3.05-6.652-7.055-8.379-8.966-4.52-4.887-8.157-7.533-9.37-6.798-1.176.735-.955 2.94.661 6.761.368.919 1.47 3.712 2.426 6.247 3.16 8.452 6.283 14.222 12.09 22.233 6.062 8.451 7.826 10.803 9.92 13.376 2.683 3.307 3.786 4.667 6.615 8.378 1.176 1.58 2.94 3.675 3.859 4.704a77.798 77.798 0 0 1 3.013 3.49c.735.92 3.821 4.447 6.871 7.865 3.05 3.454 5.476 6.32 5.365 6.394-.22.22-21.496-17.088-22.782-18.521-.184-.22-3.014-2.793-6.247-5.696-3.234-2.903-6.063-5.439-6.284-5.659-.22-.184-2.388-2.205-4.777-4.446-2.389-2.242-6.688-6.137-9.517-8.636a427.901 427.901 0 0 1-8.82-8.048c-2.02-1.91-4.593-4.079-5.695-4.777-1.103-.698-2.242-1.507-2.536-1.764-.257-.257-1.065-.44-1.837-.367-1.323.11-1.323.11-1.323 1.764.037 2.462 7.864 20.468 10.326 23.775.478.625.882 1.25.882 1.36 0 .294 3.748 5.402 6.063 8.268 1.213 1.47 2.462 3.05 2.756 3.491 1.507 2.205 11.097 12.42 18.557 19.733 2.609 2.61 4.63 4.814 4.52 4.961-.294.258-3.014-1.543-9.113-6.063-6.578-4.85-9.297-6.835-10.142-7.423-.882-.588-9.408-6.909-10.877-8.048-.552-.44-2.536-1.874-4.41-3.197a292.64 292.64 0 0 1-6.725-5.07c-5.842-4.668-8.268-5.954-10.472-5.623-.772.073-.956.33-1.03 1.543-.073.845.184 2.242.699 3.491 1.36 3.418 7.643 15.838 9.407 18.594 3.27 5.072 9.26 11.723 15.36 17.014 5.475 4.814 6.982 6.248 6.761 6.505-.147.11-1.47-.368-2.94-1.103-4.52-2.205-10.84-4.924-13.265-5.732-4.74-1.58-7.643-.882-7.643 1.837 0 1.543 4.96 16.206 6.504 19.33 4.3 8.561 8.893 12.898 19.218 18.263 2.169 1.102 2.279 1.212 1.287 1.323-.625.036-2.903-.294-5.145-.735-5.475-1.14-10.73-1.176-12.2-.074-1.506 1.14-1.8 2.279-1.323 5.586.405 2.572 1.03 4.924 4.226 15.691 1.507 5.034 4.998 11.539 7.644 14.111 1.874 1.8 1.984 1.984 1.322 2.389-3.38 2.02-4.115 2.719-5.107 4.703-1.801 3.638-2.867 8.71-2.867 13.523 0 7.276.772 11.392 2.83 15.508 1.176 2.315 1.396 2.535 3.822 3.785l2.609 1.286h11.17l-3.454 1.874c-3.49 1.874-6.136 4.19-7.202 6.247-.955 1.8-1.654 6.357-1.654 10.62 0 6.615 2.095 13.119 5.402 16.83 1.213 1.323 1.69 1.617 3.565 1.948 1.249.22 3.123.257 4.41.11 3.674-.44 4.262-.44 4.262.037 0 .257-.662.882-1.433 1.433-1.911 1.323-4.373 4.704-5.035 6.798-1.102 3.675-.294 11.025 1.764 15.839 1.397 3.27 3.491 6.21 5.549 7.717 1.323.955 1.8 1.102 3.932 1.102 2.352 0 3.821-.404 10.399-2.94 3.38-1.286 3.234-.882-1.102 2.867-1.397 1.212-2.646 2.756-3.381 4.079-1.029 1.947-1.14 2.498-1.14 5.401 0 4.888.956 7.387 4.043 10.437 1.91 1.91 2.866 2.535 4.777 3.233 1.323.441 2.756.809 3.197.809.955 0 1.433.661.882 1.213-.515.514-.515 3.123.037 4.703 1.322 3.932 7.239 8.011 11.611 8.048 1.176 0 1.176 0 1.176 1.837 0 2.94 1.433 4.961 4.667 6.578 1.764.882 5.586 1.874 7.313 1.874 1.139 0 1.543.515 2.645 3.307.22.625 1.25 1.36 3.234 2.39l2.903 1.432 4.777.074 4.777.073.735 1.323c1.103 2.021 3.528 2.793 8.636 2.793 3.674 0 4.005.073 4.225.735.147.404.882 1.066 1.654 1.47 1.874.955 8.194 1.029 12.126.147 2.132-.478 2.793-.515 3.601-.147.552.257 2.242.514 3.822.624l2.793.221-.441 1.507c-.588 1.874-1.727 4.3-2.315 4.924-.257.257-.478.735-.478.992 0 .294-1.323 3.197-2.94 6.541-1.616 3.307-2.94 6.137-2.94 6.32 0 .148-.66 1.617-1.432 3.271-2.021 4.226-4.006 8.71-4.3 9.775-.147.514-.55 1.323-.918 1.8-.405.478-.699 1.03-.699 1.213 0 .184-1.065 2.61-2.388 5.329s-2.389 5.07-2.389 5.218c0 .147-2.351 2.646-5.18 5.549-2.867 2.94-9.371 9.7-14.442 15.066-5.071 5.365-16.793 17.308-26.054 26.568-9.958 9.922-16.72 16.978-16.572 17.235.404.661 4.703.074 8.966-1.213 2.131-.624 4.263-1.25 4.777-1.36 1.029-.22 6.578-3.343 8.158-4.556 1.286-.992 1.69-.625 1.065.919-.918 2.205-.918 2.83-.11 2.83.404 0 .919-.258 1.176-.552.661-.808 1.102-.661 1.102.368 0 1.065.294 1.139 1.323.367.919-.698 1.25-.698 1.25 0 0 .735.698.698 1.506-.037.625-.588.698-.551 1.066.404l.367.993 1.14-.956c1.139-.955 1.947-.992 1.58-.073-.294.735.44 1.065 1.322.588.588-.294.92-.294 1.287 0 .55.44 2.02-.074 2.02-.735 0-.698 1.03-.368 1.213.404.368 1.36 1.985-.037 4.777-4.153 1.544-2.278 5.329-7.239 7.827-10.215a727.658 727.658 0 0 0 5.108-6.431c3.234-4.153 4.263-5.475 8.525-10.84 5.476-6.872 5.365-6.762 9.113-8.085 6.064-2.168 9.885-3.785 12.604-5.402 1.507-.882 2.793-1.58 2.903-1.58.074 0 1.287-.735 2.646-1.617 1.397-.882 3.234-2.021 4.116-2.536 12.53-7.018 14.956-8.635 16.205-10.803.919-1.544 1.69-1.544 3.27.11.662.735 2.279 2.168 3.565 3.197l2.315 1.874-.22 3.16c-.295 3.381.257 5.586 1.763 7.24 1.03 1.176 6.137 3.748 8.268 4.152 8.489 1.764 15.654 2.425 33.256 3.124 7.643.294 14.074.624 14.257.735.184.147.331.661.331 1.212 0 .809-.992 1.985-4.703 5.696-2.573 2.572-5.145 4.998-5.696 5.365-1.617 1.03-2.058 1.911-2.095 3.932 0 1.03-.22 2.61-.514 3.565-.882 2.903-.11 5.218 2.425 7.386 2.389 2.058 2.756 1.654 1.213-1.396-1.617-3.197-1.03-5.292 2.02-7.166 1.58-.992 1.912-1.36 2.28-2.867.367-1.47.991-2.315 3.6-4.924 5.108-5.144 8.085-6.283 11.281-4.336 3.932 2.389 7.827 5.622 7.827 6.468 0 1.065 1.507 3.38 2.683 4.115 2.425 1.47 2.793 4.447.992 7.975-.588 1.176-1.102 2.204-1.102 2.241 0 .368 1.065 0 2.02-.698 1.618-1.102 2.793-2.94 3.308-5.181.367-1.654.551-1.911 1.36-2.022 1.175-.146 2.13 1.066 2.13 2.683 0 1.213-1.138 3.969-1.8 4.373-.22.147-.404.514-.404.808 0 .956 1.25.552 3.013-.992 1.25-1.065 1.874-1.91 2.168-3.013.515-1.874.147-5.916-.588-7.019-.294-.404-.55-1.36-.55-2.131 0-1.727-1.58-3.638-3.565-4.3-.772-.257-2.058-.918-2.866-1.47-1.213-.808-1.617-1.396-2.279-3.344-.882-2.609-1.102-6.982-.477-9.223.367-1.286.477-1.36 2.682-1.764 4.336-.845 4.336-.845 8.525 4.96 3.38 4.705 3.491 4.925 3.491 6.873 0 1.36.22 1.947 1.286 3.197 2.205 2.646 2.021 4.997-.698 8.01-.735.81-1.323 1.58-1.323 1.728 0 .147.551.147 1.213.037.625-.147 2.241-.405 3.564-.515 2.867-.33 4.41-1.102 5.733-2.866.918-1.213 1.029-1.69 1.286-5.77.184-2.462.22-4.85.11-5.291-.11-.404-1.396-1.874-2.866-3.197-2.646-2.352-7.827-9.408-7.423-10.069.11-.184 1.654-.772 3.417-1.36 1.764-.55 4.814-1.58 6.725-2.315 6.247-2.278 10.436-3.785 11.87-4.189 1.837-.514 7.936-3.785 11.979-6.394 4.63-3.013 18.3-13.082 20.247-14.92.478-.477 1.837-1.58 2.976-2.498 6.872-5.476 12.972-11.025 18.3-16.72 1.874-2.022 3.675-3.859 3.969-4.08 1.102-.881 6.835-9.995 8.745-13.89 1.617-3.344 3.455-8.195 6.064-16.022.147-.514.918-2.499 1.653-4.41.735-1.91 1.58-4.152 1.837-4.96.258-.809 1.066-3.124 1.801-5.145 1.617-4.41 2.278-7.24 2.793-12.127.478-4.63 1.36-8.341 2.462-10.51.478-.955.845-1.874.845-2.057 0-.625 2.058-2.315 3.197-2.646.625-.184 3.087-.441 5.475-.588 2.425-.147 6.174-.662 8.415-1.14 6.798-1.506 7.46-1.322 15.985 3.712 5.402 3.197 12.861 6.798 14.147 6.798.845 0 .992-.11.809-.845-.294-1.286-2.72-7.827-3.344-9.04-.662-1.286-.258-1.764.955-1.102 1.654.882 8.195 3.638 8.636 3.638.734 0 .587-.698-.772-4.153-1.764-4.52-3.454-7.386-7.79-13.118-2.095-2.793-4.08-5.77-4.373-6.615-.294-.882-.551-2.682-.551-4.079 0-7.607-3.087-18.704-7.754-27.965-.955-1.91-4.887-7.937-5.438-8.378a57.217 57.217 0 0 1-2.058-2.389c-2.646-3.197-8.378-8.305-12.751-11.318-2.94-2.058-10.4-5.916-12.972-6.725-3.932-1.25-8.709-2.058-17.454-2.976-4.153-.441-11.135-.368-12.163.147-1.14.551-5.402 1.91-12.09 3.785-2.94.845-6.394 2.058-7.717 2.719-2.131 1.066-3.086 1.654-6.43 3.895-3.675 2.462-14.038 14.258-19.292 21.939-1.286 1.874-2.536 3.417-2.793 3.417-.22 0-1.286-1.433-2.352-3.234-1.065-1.764-2.241-3.564-2.646-4.005-.661-.698-.698-.992-.33-3.307.183-1.36.477-4.08.624-5.99.22-3.087.11-3.932-.735-7.093-.514-1.984-1.396-4.667-1.91-5.99-.625-1.616-1.066-3.6-1.25-5.953-.845-9.223-3.6-22.82-5.365-26.237-.661-1.25-4.887-13.45-9.517-27.487-3.748-11.355-3.822-11.612-7.166-22.967-1.947-6.652-8.23-25.944-9.627-29.509-.257-.624-.588-1.176-.772-1.176-.478 0-.184 1.654 1.176 6.872 1.14 4.41 2.168 9.003 3.932 17.271.808 3.896 3.307 17.97 4.373 24.732.294 1.727.771 4.446 1.065 6.063.735 3.638.735 4.263.11 3.307-1.102-1.69-4.556-12.567-6.136-19.292-.478-1.911-.955-3.712-1.102-4.043-.147-.293-.478-1.616-.699-2.94-.404-2.24-.771-3.748-2.094-8.378-.992-3.417-1.176-1.69-.257 2.389 1.47 6.725 3.38 19.035 3.637 23.628.074 1.507.368 4.226.699 6.064.294 1.8.698 4.814.918 6.614.184 1.838.515 4.226.735 5.292.184 1.102.368 2.389.368 2.94-.037.845-.147.735-.919-.772-2.094-4.005-4.667-13.45-5.144-18.851-.11-1.434-.441-3.896-.735-5.512-.294-1.617-.625-3.712-.735-4.667-.11-.956-.405-1.838-.588-1.985-.257-.147-.294.331-.184 1.36.404 2.866 1.654 15.838 1.837 19.256.846 13.927 1.066 20.505.662 20.284-.184-.147-.698-1.213-1.103-2.352-.588-1.727-.808-3.38-.955-8.562-.257-6.945-.514-8.856-1.286-9.113-.441-.147-.478 2.241-.33 14.589.11 8.084.036 14.735-.148 14.735-.147 0-.294-1.176-.294-2.609 0-1.91-.11-2.572-.44-2.462-.515.184-.772 1.764-1.397 8.379-1.03 11.208-1.654 14.625-2.756 15.066-.625.257-.992 1.286-2.131 6.651-1.875 8.489-2.683 11.135-4.116 13.56-.661 1.103-1.36 2.61-1.58 3.307-1.874 6.137-3.895 12.348-4.079 12.605-.147.147-1.396-.992-2.83-2.536-3.196-3.49-11.832-12.273-12.052-12.273-.074 0-1.323-1.103-2.756-2.5-6.872-6.577-9.922-9.37-11.686-10.583-1.837-1.286-1.984-1.506-2.866-4.336-.478-1.617-.992-3.711-1.14-4.63-.918-6.725-3.968-11.833-12.42-20.873-2.057-2.204-4.74-5.769-7.716-10.289-4.96-7.533-11.833-17.308-12.53-17.896a6.107 6.107 0 0 1-.883-1.212c-.514-.993-6.467-8.783-8.01-10.474-.552-.661-1.286-1.58-1.617-2.094-.33-.515-2.242-2.683-4.226-4.814-3.638-3.895-5.843-6.357-9.885-11.171-3.234-3.822-3.858-4.52-6.063-6.982a2251.58 2251.58 0 0 1-13.376-15.03c-1.58-1.837-3.932-4.52-5.218-5.916a352.146 352.146 0 0 1-4.997-5.733c-3.124-3.638-7.57-8.783-9.297-10.62-.956-1.029-22.379-26.715-26.825-32.154-2.131-2.572-8.782-10.877-9.738-12.127-.514-.661-3.711-4.63-7.165-8.819-3.418-4.19-7.644-9.407-9.37-11.539-1.728-2.168-3.933-4.924-4.962-6.137a854.95 854.95 0 0 1-4.63-5.88c-3.674-4.776-6.43-7.606-8.341-8.561-1.8-.919-1.69-.919-2.278-.22zm242.747 439.83c.294 1.69-.037 2.61-1.58 4.3-1.617 1.8-2.205 1.874-1.03.11.993-1.47 1.14-1.837 1.47-4.3.258-1.947.772-1.984 1.14-.11z"/>
    <path fill="#000" d="M270.05 122.773c0 .184.184.257.367.147.22-.11.368-.294.368-.404 0-.073-.147-.147-.368-.147-.183 0-.367.184-.367.404z"/>
    <g>
      <g transform="translate(222.684 271.931)">
        <mask id="c" fill="#fff">
          <use xlink:href="#a"/>
        </mask>
        <path fill="url(#b)" fill-rule="nonzero" d="M71.089 36.73a4.376 4.376 0 0 0-1.308-1.047c-.043 0-.087-.09-.13-.136l2.048-13.25c0-.091.043-.137.087-.137h.043s.044 0 .088.046l9.368 9.79c.044.045.044.09.044.136 0 .046-.044.091-.087.137l-10.023 4.507h-.043c-.044 0-.044 0-.087-.045zM49.867 29.4a6.094 6.094 0 0 0-.871-2.595c-.044-.046-.044-.137 0-.228L59.498 9.366c0-.046.043-.091.087-.091.043 0 .043 0 .087.045l9.325 9.79c.044.045.044.09.044.136L66.6 35.228c0 .091-.044.137-.088.137a4.536 4.536 0 0 0-1.525.82c0 .045-.043.045-.13.045l-14.904-6.693c-.043-.046-.087-.091-.087-.137zM83.9 34.682l15.993 16.756c.087.045.087.182 0 .182l-.087.09c0 .046-.044.046-.131.046L72.919 39.782c-.044 0-.087-.092-.087-.137 0-.046.043-.091.087-.137l10.894-4.872s.044 0 .087.046zm-12.332 8.014L97.235 54.17c.043.045.043.09.043.136 0 .046 0 .091-.043.137L83.029 69.332c0 .045-.044.045-.13.045l-15.514-3.415c-.087 0-.13-.045-.13-.136-.132-1.275-.698-2.413-1.657-3.187-.043-.046-.043-.091-.043-.137L68.3 44.699c0-.091.087-.137.13-.137 1.22-.182 2.267-.82 2.964-1.82.044-.046.087-.046.174-.046zM49.214 32.679l14.031 6.283c.044.046.087.091.087.182-.043.228-.087.501-.087.774v.41c0 .045-.043.091-.087.137 0 0-30.809 13.887-30.852 13.887-.044 0-.087 0-.13-.046-.044-.045-.044-.136 0-.182l11.547-18.896c.043-.045.087-.09.174-.09.305.045.567.09.828.09 1.743 0 3.356-.91 4.314-2.458.044-.046.087-.091.175-.091zm17.3 36.38l13.639 2.959c.043 0 .087.046.087.182 0 .046 0 .091-.044.137L61.284 92.143c0 .046-.044.046-.087.046h-.087c-.044-.046-.087-.091-.087-.182l3.268-21.218c0-.046.043-.137.087-.137.784-.319 1.438-.865 1.96-1.548.044 0 .088-.046.175-.046zm-8.019-1.685c.349 1.411 1.308 2.64 2.615 3.187.087.046.087.137 0 .137 0 0-3.966 25.543-3.966 25.589l-1.394 1.457c0 .045-.044.045-.087.045-.044 0-.044 0-.087-.045l-23.009-35.15c-.043-.046-.043-.138 0-.183.13-.182.218-.364.349-.592.043-.046.087-.091.174-.091l25.274 5.51c.088.045.131.09.131.136zm-24.751-8.742c-.087 0-.13-.046-.13-.137 0-.364-.088-.683-.132-1.047 0-.091 0-.137.088-.182 0 0 30.982-13.979 31.026-13.979 0 0 .044 0 .087.046.218.228.392.364.567.5.087 0 .087.092.087.137L62.635 61.5c0 .091-.044.137-.13.137-1.482.09-2.79 1.001-3.53 2.367-.044.046-.088.091-.175.091l-25.056-5.463zM22.719 62.32c.13.227.262.41.392.592.044.045.044.09.044.09l-5.97 9.79c-.044.046-.087.091-.13.091 0 0-.044 0-.088-.045l-5.273-5.51c-.043-.045-.043-.09-.043-.136 0-.046.043-.091.087-.091l10.807-4.872h.043c.044 0 .087.045.131.09zm7.408 2.276c.043 0 .087.046.13.091l23.096 35.424c.044.046.044.137 0 .182l-5.055 5.328c0 .045-.043.045-.174 0L19.276 75.433c-.043-.046-.043-.137.044-.228l6.275-10.29c.044-.045.087-.09.174-.09a5.648 5.648 0 0 0 1.918.318c.828 0 1.612-.182 2.44-.547zm-3.791-11.701c-.044 0-.087-.046-.13-.092L13.828 33.726c-.043-.046-.043-.137 0-.182l11.112-11.657c0-.045.044-.045.131-.045 0 .045 13.117 5.873 14.598 6.556.044.046.087.092.087.183-.087.41-.13.82-.13 1.229 0 1.411.523 2.732 1.438 3.734.043.045.043.136 0 .182L29.386 52.849c-.043.046-.087.091-.174.091a5.572 5.572 0 0 0-1.482-.228c-.436 0-.915.091-1.394.183zm14.947-27.228c-.567-.273-13.814-6.193-13.814-6.193-.044-.045-.087-.045-.044-.136 0-.046 0-.091.044-.137L48.21-2.563c0-.046.044-.046.087-.046.044 0 .044 0 .088.046l8.933 9.334c.043.045.043.136 0 .182l-10.764 17.62c-.043.046-.087.092-.174.092a5.525 5.525 0 0 0-1.7-.273c-1.176 0-2.353.455-3.268 1.23-.043.045-.043.045-.13.045zm-18.825 30.37c-.044.045-.088.09-.131.09l-24.664-5.463c-.088 0-.131-.046-.131-.091 0-.046 0-.092.043-.137l13.77-14.388c0-.046.044-.046.088-.046.087.046.087.046.13.091 0 .046 11.81 18.077 11.94 18.259.044.045.044.136 0 .182-.392.455-.784.956-1.045 1.502zm-1.395 3.095c.087 0 .13.046.13.137 0 .046-.043.091-.13.182L9.167 64.778s-.044 0-.088-.045L-.464 54.716c-.043-.046-.087-.137-.043-.182.043-.046.087-.091.174-.091l21.396 4.69z" mask="url(#c)"/>
      </g>
    </g>
  </g>
</svg>
