<svg xmlns="http://www.w3.org/2000/svg" xmlns:xlink="http://www.w3.org/1999/xlink" width="177" height="56">
  <defs>
    <path id="a" d="M5.648 1.443C6.946.003 7.323-.277 7.574.243c.126.36.503 1.28.796 2.04.293.76 1.549 2.76 2.721 4.441 2.554 3.561 3.307 5.722 2.721 7.803-.586 2-2.344 4.721-3.81 5.922-.837.64-1.507 1.76-1.925 3.04-.335 1.08-.921 2.161-1.34 2.361-.837.4-2.596-.08-1.842-.52.544-.32 1.507-1.92 1.926-3.281.21-.68.042-.96-.963-1.36-1.591-.6-4.522-3.601-5.317-5.402-1.549-3.561.251-8.363 5.107-13.844z"/>
  </defs>
  <g fill="none" fill-rule="evenodd">
    <text fill="#6200EE" font-family="Sophia" font-size="48" letter-spacing="1.25" transform="translate(-14 -1)">
      <tspan x="13.75" y="45">Netlifriends</tspan>
    </text>
    <g transform="translate(103)">
      <mask id="b" fill="#fff">
        <use xlink:href="#a"/>
      </mask>
      <path fill="#6200EE" d="M-5 31h24V-5H-5z" mask="url(#b)"/>
    </g>
  </g>
</svg>