<svg xmlns="http://www.w3.org/2000/svg" width="844" height="668">
  <g fill="#000" fill-rule="evenodd">
    <path d="M392.55 339.95l10.583 4.265c-1.37-1.163-1.966-2.245-4.183-3.268-6.599-3.05.707-.71-6.39-.979l-.01-.018zM428.453 354.31c5.222 20.904 22.738 33.135 36.86 44.185-3.594-7.696-11.912-15.353-17.91-25.538-6.415-10.896-9.142-16.91-18.95-18.647zM476.68 69.164c-13.38 6.96-15.909 18.833-24.404 28.902-9.222-24.17-6.1-31.115-3.978-49.927l85.56-33.15c-6.647 7.703-40.794 32.182-52.972 47.434l-4.233 6.732.027.01zm0 0c19.524-11.467 35.78-37.059 61.273-49.492-2.46 7.08-5.522 11.982-9.614 19.286-6.007 10.708-4.5 11.072-9.31 22.73-7.25 17.606-29.195 14.994-45.848 17.922l3.5-10.446zm-32.03 48.225c22.637-14.953-2.384-36.84 69.146-39.788-.045 6.063.1.112-.357 5.94l-3.985 46.1c-16.118 11.591-57.371 22.629-73.22 18.279.242-6.41.099-7.645 3.105-14.213 3.648-7.934 6.07-8.795 5.31-16.318zm-108.393 32.573l1.758-3.443c.17-.357.603-1.3.801-1.74l3.98-10.636c6.083-15.39 20.9-34.49 36.244-43.439.138 39.377-1.09 45.787 22.34 83.252 14.734 23.586-1.073 58.18-24.843 71.374-51.24-38.338-31.66-62.096-40.271-95.35l-.01-.018zM444.65 117.39c-13.922 13.745-21.661 56.987-32.632 74.761-6.991-26.127-55.557-88.535-11.73-117.414 10.72-7.06 30.676-18.44 42.587-22.305-1.21 48.362 7.986 40.949 3.195 59.553l-1.43 5.387.01.018zm64.46 19.582c.688 9.022-3.136 52.07-22.124 61.628-20.46 10.3-39.227 8.333-75.327 20.632l21.19-64.719c32.052-4.81 41.296-3.714 76.26-17.541zm-15.368 63.686c-.205 9.824-7.683 21.181-13.092 28.556-23.376 31.81-81.388 48.847-93.093 25.179 6.823-16.552 23.834-32.422 44.725-38.127 24.733-6.755 32.65-3.913 61.46-15.608zm-157.485-50.695l-2.529 12.765c-.15 3.825-.1 7.828-.006 11.922.878 35.584 13.37 55.23 39.434 74.32-53.3 28.628-42.491 22.83-73.322 5.15-36.853-21.15-65.331-32.13-103.167-46.553-29.113-11.105-98.89-25.988-134.91-23.956-8.412.466-16.616 1.172-24.828 2.707l-18.375 4.615c-4.684 2.284-2.099.818-3.64 2.965 15.746 1.792 24.426-8.322 63.194-5.426 21.689 1.617 39.563 5.185 58.58 8.561 48.598 8.626 35.357 6.756 70.598 20.089 31.27 11.815 61.616 26.39 90.346 43.242 11.532 6.776 16.07 7.057 22.184 16.681 9.449 14.862 8.37 3.536 23.57 11.864 18.55 10.17 33.433 19.774 51.852 28.408 13.251 6.212 41.503 16.867 51.531 23.942-25.946 1.261-46.436-21.485-81.648-28.884-67.804-14.22-91.956-78.354-177.983-94.51-18.695-3.51-35.656-9.766-54.632-14.513-28.529-7.135-91.042-9.568-119.62 3.775 9.884 5.04 40.464-6.923 76.34-4.928 38.297 2.12 69.387 14.319 105.435 22.682 12.66 2.931 22.09 7.232 33.798 11.36 49.976 17.608 60.717 60.21 124.772 76.236 30.173 7.546 68.484 33.612 134.785 47.193 5.707 1.175 12.242 2.358 18.92 3.128l35.369 6.36c9.09 2.614 7.32 2.79 18.91 3.063-13.345-9.415-37.2-11.713-59.107-18.898-19.153-6.285-34.653-9.638-55.027-18.942-15.526-7.07-97.536-42.619-104.921-53.156 8.288-4.386 30.37-15.636 36.761-22.643l-7.761-1.065c-7.9 4.15-26.004 17.213-34.162 19.797-6.736 2.118-9.443 1.173-13.1-1.298 22.62-8.974 34.627-15.036 56.71-25.487-3.651 2.193-6.06 4.443-8.253 6.337l7.311.895c12.877 5.022 13.595 15.516 44.515 10.686C533.756 246.988 505.16 105.47 525.673 55.999c2.267-5.453 6.19-13.246 9.359-18.635 7.643-13.04 23.48-26.85 27.433-36.648C541.719 2.254 444.225 44.817 420.96 57.4c-29.804 16.092-90.51 56.225-84.685 92.6l-.018-.038zM642.271 535.213l-.977 3.588c-.36 12.417 7.418 27.613 10.203 41.171 3.164 15.32 1.908 34.922 5.257 45.643 4.986-11.675 1.611-32.313-1.258-44.07-3.532-14.43-6.66-33.06-13.225-46.332z"/>
    <path d="M672.299 490.024c-20.97-13.91-36.377-19.14-60.607-22.536-11.42-1.614-55.284-21.677-61.566-25.958 42.11-18.914 104.838 20.845 122.182 48.512l-.009-.018zm48.717 92.603c-34.633-29.942-17.106-41.51-74.749-88.463-10.646-8.673-18.613-12.978-27.972-20.562 30.32-5.59 113.717 55.684 102.731 108.997l-.01.028zm-115.396 9.38c-.018-.037-30.143-19.045-36.594-23.86-11.897-8.887-26.688-21.029-36.27-32.782-25.422-31.118-30.369-64.19 1.914-91.741 5.664.76 18.332 7.28 25.464 9.498 4.157 11.906 1.111 19.569 3.153 32.964 1.463 9.674 3.919 25.75 6.796 35.878 3.445 12.138 7.904 26.871 13.647 37.706 6.411 12.065 17.562 23.557 21.89 32.337zm51.153 33.599c-2.887 4.794-3.333 12.196-7.764 16.69-1.306-21.144-47.945-60.147-60.104-84.326-11.744-23.374-28.15-82.478-20.439-101.156 17.044 2.807 58.233 28.476 74.796 41.195-1.668 10.583-4.845 23.663-.982 37.223l.87-3.81c.078-.496.272-1.369.351-1.91.098-.552.19-1.351.278-1.92 1.238-9.116.104-15.998 3.561-24.228 2.488.731 1.015-.175 4.996 2.208l13.528 12.231c82.068 84.345 15.75 142.337-14.9 141.798-.29-.454-.411-1.264-.427-1.531l4.003-15.428c2-5.437 3.344-9.73 2.214-17.027l.019-.01zm52.209-45.758c31.543 20.833-5.619 59.572-18.805 67.4 8.108-12.65 14.458-17.485 18.824-31.557 2.745-8.844-.058-25.116-.02-35.843zm-142.04-200.492l-10.802-4.386c-5.17-1.391-8.475-2.295-13.027-2.935l-76.681-13.392c-54.966-12.567-53.721-18.848-83.586-28.488-9.71-3.135-14.072-5.217-23.23-7.362-22.296-5.256-54.21-19.616-73.647-34.045-34.147-25.329-46.449-40.4-83.602-46.097-16.504-2.544-28.991-8.694-46.788-8.204-59.729 1.585-65.48-40.75-151.127 5.804 7.005 2.051 10.364-.365 20.88-5.631 58.205-29.098 65.835 1.912 134.702 4.403 11.783.43 61.352 10.39 71.894 15.887 20.274 12.625 39.143 29.322 58.714 43.982l-62.589-26.74c-19.727-8.636-88.03-28.768-105.15-29.57C94.69 241.266 84.714 216.96 3.43 255.827c11.778 2.721 73.108-32.042 104.555-9.995C88.671 248.8 25.928 247.21.488 274.787c8.425 1.863 72.368-47.56 197.308-7.348 42.356 13.638 60.808 25.298 97.822 39.07l72.766 30.974c12.795 4.901 38 9.264 52.113 14.987 24.038 49.707 76.423 71.22 109.034 85.88-.218.634-.427 2.131-.884 1.805l-16.229 26.447c-33.133 98.731 169.237 140.714 125.974 192.175-.531.648-2.273 2.481-2.786 3.12-4.011 4.886-1.51.805-3.84 5.237l16.616-.326c5.822-1.032 10.9-2.181 17.466-3.988 35.836-9.928 58.383-33.852 62.414-70.412 6.2-56.126-68.453-137.155-119.954-155.117-25.214-8.797-36.06-2.89-63.057-1.574-17.663.859-39.586-18.672-54.035-27.434-16.298-9.874-37.612-26.087-44.505-47.55 22.47 4.393 107.533 21.202 120.305 18.633l-.074-.01zM612.224 385.412c-15.503.446-40.382.89-50.555-13.39 11.475-1.8 103.743 15.545 116.772 7.817 2.52-1.504 18.972-25.474 21.034-29.752 12.759-26.7 13.597-44.245 58.106-52.18 61.76-10.996 31.632-1.678 85.448-23.419.734 16.07-58.955 85.679-102.142 89.651-17.874 1.648-29.141-4.868-42.24-3.719l-12.71 20.27c18.521 3.39 55.76-6.902 71.1-2.189-11.592 12.792-120.263 6.217-144.794 6.902l-.019.01zm176.657-52.414c-8.44-1.237-11.15-.121-19.335-.362-12.208-.36-16.6-5.654-24.945-4.627-12.061 1.49-32.331 16.455-39.018 25.345 16.162 13.075 60.181 7.85 83.29-20.375l.008.019zm-1.604-21.708c-9.895 3.064-23.847 8.29-33.083 12.612 5.565 3.234 4.332 3.195 12.998 4.048 16.052 1.62 44.324-5.305 47.102-16.384 1.908-4.592 2.38-8.23.012-8.15-4.523.123-23.315 6.703-27.038 7.855l.01.019zm26.462-17.917c-18.486 1.237-27.466-.4-35.517 15.515l21.756-7.362c9.156-5.426 13.464-7.963 13.77-8.135l-.009-.018zm-36.43 5.985c-22.117 1.499-41.495 8.662-44.173 28.591 21.482-9.333 37.527-10.409 44.173-28.59zm-43.92 11.675c-11.58 5.58-21.796 16.396-22.144 29.31 15.683-8.77 18.083-17.194 22.143-29.31z"/>
  </g>
</svg>
