<?xml version="1.0" encoding="UTF-8"?>
<svg xmlns="http://www.w3.org/2000/svg" xmlns:xlink="http://www.w3.org/1999/xlink" width="298px" height="298px" version="1.1" viewBox="0 0 298 298">
    <defs>
        <path id="path-1" d="M84.3520019,2.42397846 L154.576022,72.6479986 C157.807993,75.8799699 157.807993,81.1200306 154.576022,84.3520019 L84.3520019,154.576022 C81.1200306,157.807993 75.8799699,157.807993 72.6479986,154.576022 L2.42397846,84.3520019 C-0.80799282,81.1200306 -0.80799282,75.8799699 2.42397846,72.6479986 L72.6479986,2.42397846 C75.8799699,-0.80799282 81.1200306,-0.80799282 84.3520019,2.42397846 Z"/>
        <radialGradient id="radialGradient-3" cx="50%" cy="-50%" r="100%" fx="50%" fy="-50%">
            <stop offset="0%" stop-color="#20C6B7"/>
            <stop offset="100%" stop-color="#4D9ABF"/>
        </radialGradient>
    </defs>
    <g id="Page-1" fill="none" fill-rule="evenodd" stroke="none" stroke-width="1">
        <g id="Group">
            <rect id="Rectangle" width="298" height="298" x="0" y="0" fill="#FFFFFF"/>
            <g id="gem-color" transform="translate(70.000000, 70.000000)">
                <mask id="mask-2" fill="white">
                    <use xlink:href="#path-1"/>
                </mask>
                <g id="gem-color-a"/>
                <path id="Shape" fill="url(#radialGradient-3)" fill-rule="nonzero" d="M115.211982,56.3190349 C114.646999,55.6907093 113.940772,55.1321976 113.093298,54.7133138 C113.022675,54.7133138 112.952053,54.573686 112.88143,54.5038719 L116.200701,34.1880097 C116.200701,34.0483818 116.271323,33.9785678 116.341946,33.9785678 L116.412569,33.9785678 C116.412569,33.9785678 116.483192,33.9785678 116.553814,34.0483818 L131.737712,49.0583831 C131.808335,49.128197 131.808335,49.1980111 131.808335,49.267825 C131.808335,49.3376389 131.737712,49.4074528 131.667089,49.4772669 L115.42385,56.3888489 L115.353227,56.3888489 C115.282604,56.3888489 115.282604,56.3888489 115.211982,56.3190349 Z M80.8186006,45.078841 C80.6773538,43.6825698 80.18299,42.2862985 79.4061324,41.0994679 C79.335509,41.0296544 79.335509,40.8900273 79.4061324,40.7504001 L96.4263737,14.3608728 C96.4263737,14.2910592 96.4969971,14.2212457 96.5676205,14.2212457 C96.638244,14.2212457 96.638244,14.2212457 96.7088674,14.2910592 L111.822277,29.3009755 C111.8929,29.3707892 111.8929,29.4406027 111.8929,29.5104163 L107.937989,54.0149774 C107.937989,54.1546045 107.867366,54.224418 107.796742,54.224418 C106.878638,54.5036723 106.031157,54.9225536 105.324923,55.4810621 C105.324923,55.5508758 105.2543,55.5508758 105.113053,55.5508758 L80.9598474,45.2882818 C80.889224,45.2184682 80.8186006,45.1486547 80.8186006,45.078841 Z M135.975302,53.1777423 L161.894066,78.8690847 C162.035311,78.938898 162.035311,79.1483384 161.894066,79.1483384 L161.752818,79.2879652 C161.752818,79.3577787 161.682195,79.3577787 161.540948,79.3577787 L118.178222,60.9968465 C118.107598,60.9968465 118.036975,60.8572196 118.036975,60.7874063 C118.036975,60.7175928 118.107598,60.6477793 118.178222,60.577966 L135.834055,53.107929 C135.834055,53.107929 135.904678,53.107929 135.975302,53.1777423 Z M115.989138,65.465023 L157.586401,83.0580852 C157.657026,83.127899 157.657026,83.1977128 157.657026,83.2675266 C157.657026,83.3373402 157.657026,83.407154 157.586401,83.4769678 L134.563128,106.30606 C134.563128,106.375874 134.492505,106.375874 134.351258,106.375874 L109.209278,101.139844 C109.068031,101.139844 108.997408,101.07003 108.997408,100.930402 C108.785537,98.9756178 107.867431,97.2302744 106.313713,96.0434407 C106.24309,95.9736271 106.24309,95.9038133 106.24309,95.8339995 L110.692373,68.5368276 C110.692373,68.3972001 110.83362,68.3273863 110.904243,68.3273863 C112.881702,68.0481315 114.576667,67.070739 115.706644,65.5348368 C115.777267,65.465023 115.847891,65.465023 115.989138,65.465023 Z M79.7593408,50.1059183 L102.500058,59.7402023 C102.570682,59.810016 102.641305,59.8798298 102.641305,60.019457 C102.570682,60.3685252 102.500058,60.7874072 102.500058,61.2062891 L102.500058,61.834612 C102.500058,61.9044256 102.429435,61.9742392 102.358812,62.044053 C102.358812,62.044053 52.4281059,83.337217 52.3574825,83.337217 C52.2868592,83.337217 52.2162358,83.337217 52.1456124,83.2674033 C52.0749891,83.1975897 52.0749891,83.0579624 52.1456124,82.9881488 L70.8607992,54.0154829 C70.9314225,53.9456692 71.0020459,53.8758556 71.1432926,53.8758556 C71.6376561,53.9456692 72.0613961,54.0154829 72.4851362,54.0154829 C75.3100699,54.0154829 77.9231337,52.6192098 79.4768474,50.2455456 C79.5474707,50.175732 79.6180941,50.1059183 79.7593408,50.1059183 Z M107.796553,105.886953 L129.901678,110.424859 C129.972301,110.424859 130.042925,110.494672 130.042925,110.704114 C130.042925,110.773928 130.042925,110.843742 129.972301,110.913556 L99.3217453,141.282617 C99.3217453,141.352431 99.2511219,141.352431 99.1804986,141.352431 L99.0392518,141.352431 C98.9686284,141.282617 98.8980049,141.212803 98.8980049,141.073176 L104.19476,108.539882 C104.19476,108.470068 104.265383,108.33044 104.336007,108.33044 C105.607228,107.841743 106.666579,107.003976 107.51406,105.956767 C107.584683,105.956767 107.655307,105.886953 107.796553,105.886953 Z M94.801996,103.304067 C95.3669844,105.468295 96.9207029,107.353267 99.0394096,108.191033 C99.1806567,108.260847 99.1806567,108.400474 99.0394096,108.400474 C99.0394096,108.400474 92.6126656,147.566015 92.6126656,147.635829 L90.3527116,149.86987 C90.3527116,149.939684 90.2820881,149.939684 90.2114645,149.939684 C90.1408409,149.939684 90.1408409,149.939684 90.0702174,149.86987 L52.7809776,95.9736182 C52.710354,95.9038044 52.710354,95.7641769 52.7809776,95.6943631 C52.9928483,95.4151078 53.1340954,95.1358526 53.345966,94.7867837 C53.4165896,94.7169699 53.4872132,94.647156 53.6284604,94.647156 L94.5901253,103.094626 C94.7313724,103.164439 94.801996,103.234253 94.801996,103.304067 Z M54.6880794,89.8994947 C54.5468329,89.8994947 54.4762097,89.829681 54.4762097,89.6900538 C54.4762097,89.131545 54.3349632,88.6428497 54.2643399,88.0843408 C54.2643399,87.9447136 54.2643399,87.8749 54.4055865,87.8050864 C54.4055865,87.8050864 104.618707,66.3723084 104.68933,66.3723084 C104.68933,66.3723084 104.759953,66.3723084 104.830576,66.4421221 C105.183693,66.7911901 105.466185,67.000631 105.748678,67.2100718 C105.889925,67.2100718 105.889925,67.349699 105.889925,67.4195125 L101.511284,94.2977519 C101.511284,94.4373792 101.440661,94.5071928 101.299415,94.5071928 C98.8982246,94.6468201 96.7795276,96.0430922 95.5789325,98.1375005 C95.5083094,98.207314 95.4376861,98.2771277 95.2964396,98.2771277 L54.6880794,89.8994947 Z M36.8203211,95.5546153 C37.0321928,95.9036865 37.2440644,96.1829435 37.4559361,96.4622004 C37.52656,96.5320147 37.52656,96.6018289 37.52656,96.6018289 L27.8510881,111.611891 C27.7804642,111.681705 27.7098402,111.751519 27.6392164,111.751519 C27.6392164,111.751519 27.5685925,111.751519 27.4979687,111.681705 L18.9524789,103.234182 C18.8818551,103.164368 18.8818551,103.094553 18.8818551,103.024739 C18.8818551,102.954925 18.9524789,102.885111 19.0231027,102.885111 L36.5378256,95.4149868 L36.6084495,95.4149868 C36.6790734,95.4149868 36.7496972,95.484801 36.8203211,95.5546153 Z M48.825968,99.0453735 C48.8965911,99.0453735 48.9672141,99.1151873 49.0378372,99.1850012 L86.4680776,153.500166 C86.5387007,153.56998 86.5387007,153.709607 86.4680776,153.779421 L78.2757986,161.94764 C78.2757986,162.017453 78.2051755,162.017453 77.9933062,161.94764 L31.2408172,115.661067 C31.1701943,115.591253 31.1701943,115.451625 31.3114404,115.311997 L41.4811661,99.5340704 C41.5517891,99.4642564 41.6224122,99.3944427 41.7636585,99.3944427 C42.8230049,99.7435118 43.8117283,99.8831395 44.8710746,99.8831395 C46.2129135,99.8831395 47.4841291,99.6038841 48.825968,99.0453735 Z M42.68189,81.1029508 C42.6112664,81.1029508 42.540643,81.0331372 42.4700194,80.9633236 L22.4129377,51.7114165 C22.3423141,51.6416029 22.3423141,51.5019756 22.4129377,51.432162 L40.4219371,33.559875 C40.4219371,33.4900615 40.4925607,33.4900615 40.6338078,33.4900615 C40.6338078,33.559875 61.8914895,42.4960185 64.2926895,43.5432229 C64.3633129,43.6130365 64.4339364,43.6828502 64.4339364,43.8224773 C64.2926895,44.4507998 64.2220659,45.0791226 64.2220659,45.7074451 C64.2220659,47.8716674 65.0695482,49.8962623 66.5526423,51.432162 C66.6232659,51.5019756 66.6232659,51.6416029 66.5526423,51.7114165 L47.6255369,81.0331372 C47.5549134,81.1029508 47.4842898,81.1727645 47.3430428,81.1727645 C46.566184,80.9633236 45.7187017,80.8236964 44.9418429,80.8236964 C44.2356076,80.8236964 43.4587488,80.9633236 42.68189,81.1029508 Z M66.9058722,39.3546279 C65.9877715,38.9357427 44.5183412,29.8598946 44.5183412,29.8598946 C44.4477181,29.7900804 44.3770949,29.7900804 44.4477181,29.650452 C44.4477181,29.5806378 44.4477181,29.5108236 44.5183412,29.4410094 L78.1349492,-3.93018578 C78.1349492,-4 78.2055723,-4 78.2761954,-4 C78.3468186,-4 78.3468186,-4 78.4174417,-3.93018578 L92.8951826,10.3817285 C92.9658058,10.4515427 92.9658058,10.5911711 92.8951826,10.6609853 L75.4512704,37.6790868 C75.3806473,37.748901 75.3100241,37.8187152 75.1687779,37.8187152 C74.2506773,37.5394584 73.3325767,37.39983 72.414476,37.39983 C70.5076516,37.39983 68.6008271,38.0979721 67.1177416,39.2848137 C67.0471184,39.3546279 67.0471184,39.3546279 66.9058722,39.3546279 Z M36.3965666,85.9202758 C36.3259433,85.9900896 36.2553199,86.0599032 36.1846965,86.0599032 L-3.7881299,77.6822569 C-3.92937663,77.6822569 -4,77.6124431 -4,77.5426295 C-4,77.4728157 -4,77.4030021 -3.92937663,77.3331883 L18.3876078,55.2720529 C18.3876078,55.2022391 18.458231,55.2022391 18.5288545,55.2022391 C18.6701012,55.2720529 18.6701012,55.2720529 18.7407246,55.3418665 C18.7407246,55.4116803 37.8796573,83.0579133 38.0915274,83.3371682 C38.1621508,83.4069819 38.1621508,83.5466094 38.0915274,83.6164231 C37.4559171,84.3145602 36.8203068,85.0825112 36.3965666,85.9202758 Z M34.1362061,90.6674379 C34.2774521,90.6674379 34.3480749,90.7372513 34.3480749,90.8768777 C34.3480749,90.946691 34.2774521,91.0165042 34.1362061,91.1561308 L14.8561475,99.3242828 C14.8561475,99.3242828 14.7855245,99.3242828 14.7149017,99.2544695 L-0.751519099,83.8955513 C-0.822142024,83.825738 -0.89276495,83.6861115 -0.822142024,83.6162982 C-0.751519099,83.546485 -0.680896173,83.4766716 -0.539650322,83.4766716 L34.1362061,90.6674379 Z" mask="url(#mask-2)"/>
            </g>
        </g>
    </g>
</svg>
