<svg xmlns="http://www.w3.org/2000/svg" xmlns:xlink="http://www.w3.org/1999/xlink" width="427" height="114" viewBox="0 0 427 114">
  <defs>
    <path id="logotype-color-dark-a" d="M59.2075804,1.70141664 L108.498578,50.9924142 C110.767133,53.2609697 110.767133,56.9390249 108.498578,59.2075804 L59.2075804,108.498578 C56.9390249,110.767133 53.2609697,110.767133 50.9924142,108.498578 L1.70141664,59.2075804 C-0.56713888,56.9390249 -0.56713888,53.2609697 1.70141664,50.9924142 L50.9924142,1.70141664 C53.2609697,-0.56713888 56.9390249,-0.56713888 59.2075804,1.70141664 Z"/>
    <radialGradient id="logotype-color-dark-b" cy="0%" r="100%" fx="50%" fy="0%" gradientTransform="matrix(0 1 -1.15188 0 .5 -.5)">
      <stop offset="0%" stop-color="#20C6B7"/>
      <stop offset="100%" stop-color="#4D9ABF"/>
    </radialGradient>
  </defs>
  <g fill="none" fill-rule="evenodd" transform="translate(-3 -2)">
    <path fill="#0E1E25" d="M157.968618,37.6372694 L158.325288,44.0093397 C162.401533,39.0815807 167.751524,36.6177381 174.375422,36.6177381 C185.856846,36.6177381 191.699376,43.1936489 191.903188,56.3456678 L191.903188,92.79391 L179.521656,92.79391 L179.521656,57.0593397 C179.521656,53.5589316 178.765864,50.9676489 177.254256,49.2854139 C175.742648,47.6031789 173.271462,46.7620741 169.840622,46.7620741 C164.847222,46.7620741 161.127704,49.0220124 158.681957,53.5419569 L158.681957,92.79391 L146.300425,92.79391 L146.300425,37.6372694 L157.968618,37.6372694 Z M228.793022,93.8134413 C220.94625,93.8134413 214.585705,91.3411027 209.711195,86.3963514 C204.836685,81.4516001 202.399467,74.8671933 202.399467,66.6429334 L202.399467,65.1136366 C202.399467,59.6081403 203.460973,54.6889512 205.584017,50.3559217 C207.707062,46.0228922 210.687771,42.6499768 214.526235,40.2370741 C218.364699,37.8241714 222.644692,36.6177381 227.366343,36.6177381 C234.873428,36.6177381 240.673498,39.0136126 244.766727,43.8054334 C248.859956,48.5972543 250.90654,55.3770693 250.90654,64.1450819 L250.90654,69.140785 L214.882905,69.140785 C215.256561,73.694714 216.776638,77.2970217 219.443181,79.9478163 C222.109725,82.5986108 225.464085,83.9239881 229.506361,83.9239881 C235.179135,83.9239881 239.79881,81.6300658 243.365525,77.0421522 L250.040343,83.4142225 C247.832377,86.7107234 244.885635,89.268022 241.20003,91.0861952 C237.514425,92.9043683 233.378797,93.8134413 228.793022,93.8134413 Z M227.31539,46.5581678 C223.918519,46.5581678 221.175587,47.747609 219.086512,50.1265272 C216.997436,52.5054453 215.664184,55.8188888 215.086716,60.0669569 L238.677866,60.0669569 L238.677866,59.1493788 C238.406117,55.0032643 237.30215,51.868237 235.365934,49.744203 C233.429717,47.6201689 230.74623,46.5581678 227.31539,46.5581678 Z M276.026275,24.2304334 L276.026275,37.6372694 L285.758261,37.6372694 L285.758261,46.8130506 L276.026275,46.8130506 L276.026275,77.6028944 C276.026275,79.7099362 276.442385,81.2307217 277.274619,82.1652967 C278.106852,83.0998717 279.592961,83.5671522 281.732989,83.5671522 C283.159675,83.5671522 284.603324,83.397232 286.063978,83.0573866 L286.063978,92.6409803 C283.244575,93.4226248 280.527119,93.8134413 277.911529,93.8134413 C268.40029,93.8134413 263.644742,88.5629078 263.644742,78.0616834 L263.644742,46.8130506 L254.575143,46.8130506 L254.575143,37.6372694 L263.644742,37.6372694 L263.644742,24.2304334 L276.026275,24.2304334 Z M308.381308,92.79391 L295.999776,92.79391 L295.999776,14.49391 L308.381308,14.49391 L308.381308,92.79391 Z M335.029627,92.79391 L322.648094,92.79391 L322.648094,37.6372694 L335.029627,37.6372694 L335.029627,92.79391 Z M321.883802,23.3128553 C321.883802,21.4097208 322.486738,19.8294632 323.692627,18.572035 C324.898516,17.3146068 326.622402,16.6859022 328.864337,16.6859022 C331.106272,16.6859022 332.83865,17.3146068 334.061523,18.572035 C335.284397,19.8294632 335.895825,21.4097208 335.895825,23.3128553 C335.895825,25.1820053 335.284397,26.7367749 334.061523,27.9772108 C332.83865,29.2176467 331.106272,29.8378553 328.864337,29.8378553 C326.622402,29.8378553 324.898516,29.2176467 323.692627,27.9772108 C322.486738,26.7367749 321.883802,25.1820053 321.883802,23.3128553 Z M352.86311,92.79391 L352.86311,46.8130506 L344.455896,46.8130506 L344.455896,37.6372694 L352.86311,37.6372694 L352.86311,32.5905897 C352.86311,26.4733716 354.56152,21.7495907 357.958391,18.4191053 C361.355261,15.0886199 366.110809,13.4234022 372.225177,13.4234022 C374.399174,13.4234022 376.709012,13.7292585 379.154759,14.3409803 L378.849042,24.0265272 C377.490294,23.7546508 375.910772,23.6187147 374.110431,23.6187147 C368.199875,23.6187147 365.244642,26.6602858 365.244642,32.7435194 L365.244642,37.6372694 L376.45426,37.6372694 L376.45426,46.8130506 L365.244642,46.8130506 L365.244642,92.79391 L352.86311,92.79391 Z M404.784021,75.0540663 L415.993639,37.6372694 L429.190416,37.6372694 L407.280709,101.154066 C403.917807,110.431847 398.211149,115.070668 390.160565,115.070668 C388.360224,115.070668 386.373084,114.764811 384.199087,114.15309 L384.199087,104.569496 L386.542916,104.722426 C389.668037,104.722426 392.020335,104.153193 393.59988,103.014711 C395.179425,101.876229 396.427756,99.9646265 397.344911,97.2798475 L399.12826,92.5390272 L379.766192,37.6372694 L393.115828,37.6372694 L404.784021,75.0540663 Z"/>
    <g transform="translate(3.873 2.9)">
      <mask id="logotype-color-dark-c" fill="#fff">
        <use xlink:href="#logotype-color-dark-a"/>
      </mask>
      <path fill="url(#logotype-color-dark-b)" d="M80.4047544,39.2462175 C80.0099475,38.8071928 79.516439,38.4169486 78.9242287,38.1242654 C78.8748778,38.1242654 78.825527,38.0267044 78.7761761,37.9779238 L81.0956663,23.7827904 C81.0956663,23.6852294 81.1450172,23.6364488 81.194368,23.6364488 L81.2437189,23.6364488 C81.2437189,23.6364488 81.2930698,23.6364488 81.3424206,23.6852294 L91.9528546,34.1730427 C92.0022055,34.2218232 92.0022055,34.2706038 92.0022055,34.3193843 C92.0022055,34.3681648 91.9528546,34.4169453 91.9035038,34.4657259 L80.5528069,39.2949981 L80.5034561,39.2949981 C80.4541052,39.2949981 80.4541052,39.2949981 80.4047544,39.2462175 Z M56.3708266,31.3924504 C56.272124,30.4168454 55.926665,29.4412404 55.3838007,28.6119761 C55.3344494,28.5631959 55.3344494,28.4656354 55.3838007,28.3680749 L67.2774627,9.92914002 C67.2774627,9.88035977 67.326814,9.83157952 67.3761653,9.83157952 C67.4255166,9.83157952 67.4255166,9.83157952 67.4748679,9.88035977 L78.0360449,20.3681137 C78.0853961,20.416894 78.0853961,20.4656742 78.0853961,20.5144545 L75.3217237,37.6363226 C75.3217237,37.7338831 75.2723724,37.7826633 75.2230211,37.7826633 C74.5814542,37.9777843 73.9892387,38.2704658 73.4957258,38.6607078 C73.4957258,38.7094881 73.4463745,38.7094881 73.3476719,38.7094881 L56.4695292,31.5387912 C56.4201779,31.4900109 56.3708266,31.4412307 56.3708266,31.3924504 Z M94.9140615,37.0513283 L113.025968,55.0024262 C113.12467,55.0512063 113.12467,55.1975468 113.025968,55.1975468 L112.927265,55.2951071 C112.927265,55.3438873 112.877914,55.3438873 112.779211,55.3438873 L82.4775484,42.5147059 C82.4281972,42.5147059 82.3788459,42.4171456 82.3788459,42.3683655 C82.3788459,42.3195853 82.4281972,42.2708051 82.4775484,42.222025 L94.8153591,37.0025482 C94.8153591,37.0025482 94.8647103,37.0025482 94.9140615,37.0513283 Z M80.9478275,45.6367177 L110.015793,57.9293717 C110.065145,57.9781521 110.065145,58.0269325 110.065145,58.0757129 C110.065145,58.1244932 110.065145,58.1732736 110.015793,58.222054 L93.9272417,74.173236 C93.9272417,74.2220163 93.8778903,74.2220163 93.7791875,74.2220163 L76.2100945,70.5634884 C76.1113917,70.5634884 76.0620404,70.514708 76.0620404,70.4171472 C75.9139862,69.0512968 75.2724182,67.8317875 74.1866877,67.0025211 C74.1373363,66.9537408 74.1373363,66.9049604 74.1373363,66.85618 L77.2464736,47.7830542 C77.2464736,47.6854934 77.3451764,47.636713 77.3945277,47.636713 C78.7763665,47.4415916 79.9607998,46.7586663 80.7504219,45.6854981 C80.7997733,45.6367177 80.8491247,45.6367177 80.9478275,45.6367177 Z M55.630621,34.9049783 L71.521724,41.6366614 C71.5710752,41.6854417 71.6204265,41.7342221 71.6204265,41.8317827 C71.5710752,42.0756842 71.521724,42.3683661 71.521724,42.661048 L71.521724,43.1000708 C71.521724,43.1488511 71.4723727,43.1976314 71.4230215,43.2464118 C71.4230215,43.2464118 36.5316867,58.1244071 36.4823354,58.1244071 C36.4329842,58.1244071 36.3836329,58.1244071 36.3342816,58.0756268 C36.2849304,58.0268465 36.2849304,57.9292859 36.3342816,57.8805056 L49.4123633,37.6366758 C49.4617145,37.5878955 49.5110658,37.5391152 49.6097683,37.5391152 C49.9552271,37.5878955 50.2513346,37.6366758 50.5474421,37.6366758 C52.5214921,37.6366758 54.3474884,36.6610695 55.433216,35.0025389 C55.4825672,34.9537586 55.5319185,34.9049783 55.630621,34.9049783 Z M75.2228891,73.8803964 L90.6698429,77.0511295 C90.7191942,77.0511295 90.7685455,77.09991 90.7685455,77.2462515 C90.7685455,77.295032 90.7685455,77.3438125 90.7191942,77.392593 L69.3007343,98.6121146 C69.3007343,98.6608951 69.251383,98.6608951 69.2020318,98.6608951 L69.1033292,98.6608951 C69.0539779,98.6121146 69.0046266,98.5633341 69.0046266,98.4657731 L72.7059734,75.7340557 C72.7059734,75.6852752 72.7553246,75.5877142 72.8046759,75.5877142 C73.6929992,75.2462506 74.4332685,74.6608845 75.025484,73.9291769 C75.0748353,73.9291769 75.1241866,73.8803964 75.2228891,73.8803964 Z M66.1423554,72.0756781 C66.5371666,73.587871 67.6228975,74.9049421 69.1034395,75.4903071 C69.2021423,75.5390875 69.2021423,75.6366484 69.1034395,75.6366484 C69.1034395,75.6366484 64.612462,103.002461 64.612462,103.051241 L63.0332171,104.612214 C63.0332171,104.660995 62.9838657,104.660995 62.9345143,104.660995 C62.8851629,104.660995 62.8851629,104.660995 62.8358115,104.612214 L36.7782717,66.9537346 C36.7289203,66.9049542 36.7289203,66.8073934 36.7782717,66.758613 C36.9263259,66.5634913 37.0250287,66.3683696 37.1730829,66.1244676 C37.2224343,66.0756872 37.2717857,66.0269067 37.3704886,66.0269067 L65.9943012,71.9293369 C66.093004,71.9781173 66.1423554,72.0268977 66.1423554,72.0756781 Z M38.1109452,62.7096128 C38.0122428,62.7096128 37.9628917,62.6608325 37.9628917,62.5632719 C37.9628917,62.1730297 37.8641893,61.8315677 37.8148381,61.4413254 C37.8148381,61.3437649 37.8148381,61.2949846 37.9135405,61.2462043 C37.9135405,61.2462043 73.0022252,46.2706577 73.0515764,46.2706577 C73.0515764,46.2706577 73.1009276,46.2706577 73.1502787,46.319438 C73.3970346,46.5633394 73.5944393,46.7096803 73.791844,46.8560211 C73.8905464,46.8560211 73.8905464,46.9535817 73.8905464,47.0023619 L70.8307736,65.7827705 C70.8307736,65.8803311 70.7814224,65.9291114 70.68272,65.9291114 C69.0047801,66.026672 67.5242449,67.0022776 66.6852749,68.4656861 C66.6359238,68.5144663 66.5865726,68.5632466 66.4878702,68.5632466 L38.1109452,62.7096128 Z M25.6250424,66.6609682 C25.7730973,66.9048718 25.9211522,67.0999947 26.0692071,67.2951176 C26.1185587,67.3438983 26.1185587,67.392679 26.1185587,67.392679 L19.3573859,77.8805347 C19.3080343,77.9293154 19.2586826,77.9780962 19.209331,77.9780962 C19.209331,77.9780962 19.1599794,77.9780962 19.1106278,77.9293154 L13.139081,72.0268478 C13.0897294,71.9780671 13.0897294,71.9292864 13.0897294,71.8805056 C13.0897294,71.8317249 13.139081,71.7829442 13.1884326,71.7829442 L25.4276359,66.5634067 L25.4769876,66.5634067 C25.5263392,66.5634067 25.5756908,66.6121874 25.6250424,66.6609682 Z M34.0145302,69.1000366 C34.0638813,69.1000366 34.1132323,69.148817 34.1625834,69.1975975 L60.3186537,107.148781 C60.3680048,107.197561 60.3680048,107.295122 60.3186537,107.343902 L54.5939289,113.051214 C54.5939289,113.099994 54.5445778,113.099994 54.3965246,113.051214 L21.7261122,80.7097816 C21.6767612,80.6610011 21.6767612,80.5634402 21.7754633,80.4658794 L28.8820183,69.4414997 C28.9313693,69.3927192 28.9807204,69.3439388 29.0794226,69.3439388 C29.8196887,69.587841 30.5106038,69.6854019 31.2508699,69.6854019 C32.1885404,69.6854019 33.0768597,69.4902801 34.0145302,69.1000366 Z M29.7210783,56.5632769 C29.6717269,56.5632769 29.6223756,56.5144966 29.5730242,56.4657163 L15.5572328,36.0267747 C15.5078814,35.9779944 15.5078814,35.8804338 15.5572328,35.8316535 L28.1418342,23.3438991 C28.1418342,23.2951189 28.1911856,23.2951189 28.2898884,23.2951189 C28.2898884,23.3438991 43.1446532,29.5877763 44.8226001,30.3194807 C44.8719514,30.368261 44.9213028,30.4170413 44.9213028,30.5146018 C44.8226001,30.9536244 44.7732487,31.3926471 44.7732487,31.8316697 C44.7732487,33.3438587 45.3654652,34.7584871 46.4018442,35.8316535 C46.4511956,35.8804338 46.4511956,35.9779944 46.4018442,36.0267747 L33.1756748,56.5144966 C33.1263234,56.5632769 33.076972,56.6120572 32.9782693,56.6120572 C32.4354041,56.4657163 31.8431876,56.3681558 31.3003224,56.3681558 C30.8068086,56.3681558 30.2639435,56.4657163 29.7210783,56.5632769 Z M46.6486795,27.3928186 C46.0071152,27.1001344 31.0043815,20.7586426 31.0043815,20.7586426 C30.9550304,20.7098619 30.9056793,20.7098619 30.9550304,20.6123005 C30.9550304,20.5635198 30.9550304,20.5147391 31.0043815,20.4659584 L54.495504,-2.85121915 C54.495504,-2.89999986 54.5448551,-2.89999986 54.5942062,-2.89999986 C54.6435573,-2.89999986 54.6435573,-2.89999986 54.6929084,-2.85121915 L64.8098835,7.14882561 C64.8592346,7.19760631 64.8592346,7.29516772 64.8098835,7.34394843 L52.6201623,26.2220817 C52.5708112,26.2708624 52.5214601,26.3196431 52.4227579,26.3196431 C51.7811937,26.1245203 51.1396294,26.0269589 50.4980651,26.0269589 C49.1655855,26.0269589 47.8331058,26.5147659 46.7967328,27.3440379 C46.7473817,27.3928186 46.7473817,27.3928186 46.6486795,27.3928186 Z M25.3289248,59.9292463 C25.2795736,59.9780267 25.2302223,60.026807 25.180871,60.026807 L-2.75194606,54.1731639 C-2.85064859,54.1731639 -2.89999986,54.1243835 -2.89999986,54.0756032 C-2.89999986,54.0268228 -2.89999986,53.9780425 -2.85064859,53.9292621 L12.7443518,38.5146685 C12.7443518,38.4658881 12.793703,38.4658881 12.8430543,38.4658881 C12.9417568,38.5146685 12.9417568,38.5146685 12.9911081,38.5634488 C12.9911081,38.6122292 26.3653014,57.9292516 26.5133552,58.124373 C26.5627065,58.1731534 26.5627065,58.2707141 26.5133552,58.3194945 C26.0691938,58.807298 25.6250324,59.343882 25.3289248,59.9292463 Z M23.7493959,63.2461914 C23.8480979,63.2461914 23.8974488,63.2949715 23.8974488,63.3925315 C23.8974488,63.4413116 23.8480979,63.4900916 23.7493959,63.5876517 L10.2765845,69.2949166 C10.2765845,69.2949166 10.2272335,69.2949166 10.1778826,69.2461365 L-0.629977172,58.5145274 C-0.679328129,58.4657473 -0.728679087,58.3681873 -0.679328129,58.3194072 C-0.629977172,58.2706272 -0.580626214,58.2218471 -0.481924299,58.2218471 L23.7493959,63.2461914 Z" mask="url(#logotype-color-dark-c)"/>
    </g>
  </g>
</svg>
